<svg xmlns="http://www.w3.org/2000/svg" width="32" height="32"><path fill="#ab273c" d="M9.6953125 2c-1.2083859.0003931-2.3238438.6298375-2.9277344 1.6523438L.453125 14.337891C.14388771 14.861256-.01343636 15.456394 0 16.060547c.0125279.555132.16897131 1.099182.453125 1.580078l6.3144531 10.683594c.6038906 1.022507 1.7193485 1.653903 2.9277344 1.654297H22.324219c1.208386-.000394 2.325797-.63179 2.929687-1.654297l6.314453-10.683594c.603606-1.021984.603606-2.28075 0-3.302734L25.253906 3.6523438C24.650016 2.6298375 23.532605 2.0003931 22.324219 2H9.6953125zM8 8h4.550781L16 16.855469 19.449219 8H24v16h-3.714844l-.019531-9.472656-2.876953 7.898437h-2.777344l-2.876953-7.898437V24H8V8z"/></svg>
