<svg xmlns="http://www.w3.org/2000/svg" width="926.62165" height="600.08495" id="root"><circle cx="150.53395" cy="254.87249" r="24.56103" fill="#ffb8b8"/><path fill="#ffb8b8" d="M67.543 549.197l6.219 10.566 43.712-18.96-9.179-15.593-40.752 23.987z"/><path fill="#2f2e41" d="M69.40648 544.47217l12.24734 20.80688.0005.00084a15.38605 15.38605 0 01-5.4555 21.06458l-.43091.25362-20.05239-34.06705z"/><path fill="#ffb8b8" d="M139.6 587.26l12.26-.001 5.832-47.288-18.094.001.002 47.288z"/><path fill="#2f2e41" d="M136.47305 583.25713l24.14379-.001h.001a15.38605 15.38605 0 0115.38648 15.38623v.5l-39.53052.00146zM90.31145 558.6097a4.49318 4.49318 0 01-3.624-1.833l-11.82373-16.05859a4.49961 4.49961 0 011.12451-6.41016l52.614-35.1416-31.74659-83.47461 67.88918 5.60253 2.28662 71.7334a36.04579 36.04579 0 01-18.04518 32.4238l-56.42652 32.55371a4.486 4.486 0 01-2.24829.60452z"/><path fill="#2f2e41" d="M139.97015 577.65947a4.49986 4.49986 0 01-4.48877-4.33984l-2.488-69.88184 30.80835-1.623-2.45313 70.38379a4.48729 4.48729 0 01-4.1997 4.333l-16.87281 1.11817c-.10233.00682-.20438.00972-.30594.00972z"/><path fill="#ab273c" d="M172.60174 435.17122c-7.83838 0-35.21656-8.8164-44.72119-11.959-1.42188 1.13769-9.23316 6.97851-18.35108 5.91113-5.626-.66016-10.57886-3.84473-14.72095-9.46582-9.147-12.41406 2.15064-65.65137 13.239-108.126a34.26782 34.26782 0 0140.52856-24.87988 34.57137 34.57137 0 0126.08765 25.37793c2.08765 8.49805.29175 18.49414-1.01953 25.79395-.61646 3.43164-1.10352 6.14257-.937 7.47461.64355 5.14843 4.21875 85.8916 1.91992 89.33984-.24487.36723-.95287.53324-2.02538.53324z"/><path fill="#ffb8b8" d="M143.92682 435.31424a10.74269 10.74269 0 00.9416-16.44569l.48534-97.84356-23.04478 3.8374 6.76925 94.97037a10.80091 10.80091 0 0014.84859 15.48148z"/><path fill="#ab273c" d="M149.25682 383.86068h-24.82183a4.51352 4.51352 0 01-4.5-4.459l-.60938-67.292a17.603 17.603 0 1135.20411.043l-.7732 67.25979a4.51547 4.51547 0 01-4.4997 4.44821z"/><path fill="#2f2e41" d="M144.28008 279.3312c-11.24529.02059-21.85416-8.868-23.80286-19.94323a28.67148 28.67148 0 01.91927-13.01372 34.95394 34.95394 0 0147.93533-21.95278c3.00831 1.36131 5.97145 3.31645 7.3489 6.31741s.51535 7.19528-2.49791 8.54561c-1.96916.88242-4.44023.4491-6.18719 1.71573-2.50928 1.81937-1.86334 5.69129-.74286 8.58112s2.38776 6.38691.50947 8.85239c-1.75023 2.29739-5.24872 2.22609-8.00436 1.36137s-5.47557-2.31277-8.34864-2.01822c-4.1904.42961-7.20172 4.59773-7.7591 8.77306s.75474 8.34892 2.05018 12.35714z"/><path fill="#ccc" d="M259 600.08494H1a1 1 0 110-2h258a1 1 0 010 2z"/><path fill="#f2f2f2" fill-rule="evenodd" d="M910.12164 434.54785h-640.8385a16.51868 16.51868 0 01-16.5-16.5V22.89404a12.10185 12.10185 0 0112.08789-12.08838h649.4535a12.31111 12.31111 0 0112.29711 12.29736v394.94483a16.51867 16.51867 0 01-16.5 16.5zm-20.71982-20.83232H292.15709c-8.755 0-15.87757-6.66993-15.87757-14.86817v-344.105c0-6.08008 5.278-11.02685 11.76563-11.02685h605.27367c6.59521 0 11.96069 5.02832 11.96069 11.20849v343.92336c.00001 8.19824-7.12279 14.86817-15.87769 14.86817z"/><path fill="currentColor" d="M926.39191 24.95019H252.55158V16.5498A16.57376 16.57376 0 01269.11158 0h640.72024a16.57368 16.57368 0 0116.56006 16.5498z"/><circle cx="282.64694" cy="12.5" r="4.28342" fill="#fff"/><circle cx="298.90575" cy="12.5" r="4.28342" fill="#fff"/><circle cx="315.16455" cy="12.5" r="4.28342" fill="#fff"/><path fill="#ccc" d="M576.61049 118.95447H459.80235a6.56614 6.56614 0 010-13.13228h116.80814a6.56614 6.56614 0 110 13.13228zM721.75669 118.95447H604.94856a6.56614 6.56614 0 010-13.13228h116.80813a6.56614 6.56614 0 110 13.13228zM721.75669 143.83666H518.55201a6.566135 6.566135 0 110-13.13227h203.20468a6.566135 6.566135 0 110 13.13227zM576.61049 93.72666H459.80235a6.56614 6.56614 0 010-13.13227h116.80814a6.56614 6.56614 0 110 13.13227zM640.88952 94.07225h-33.17627a6.56614 6.56614 0 010-13.13228h33.17627a6.56614 6.56614 0 110 13.13228zM492.97863 143.83666h-33.17628a6.56614 6.56614 0 010-13.13227h33.17628a6.56614 6.56614 0 110 13.13227zM576.61049 351.95447H459.80235a6.56614 6.56614 0 010-13.13228h116.80814a6.56614 6.56614 0 110 13.13228zM721.75669 351.95447H604.94856a6.56614 6.56614 0 010-13.13228h116.80813a6.56614 6.56614 0 110 13.13228zM721.75669 376.83666H518.55201a6.566135 6.566135 0 110-13.13227h203.20468a6.56614 6.56614 0 110 13.13227zM576.61049 326.72666H459.80235a6.566135 6.566135 0 010-13.13227h116.80814a6.566135 6.566135 0 110 13.13227zM640.88952 327.07225h-33.17627a6.56614 6.56614 0 010-13.13228h33.17627a6.56614 6.56614 0 010 13.13228zM492.97863 376.83666h-33.17628a6.566135 6.566135 0 010-13.13227h33.17628a6.56614 6.56614 0 110 13.13227z"/><path fill="#ab273c" d="M546.10382 281.46171a9.39692 9.39692 0 01-6.62352-2.7101l-43.90868-43.35929a9.1516 9.1516 0 010-13.02336l43.73124-43.18435a9.70171 9.70171 0 0113.64354.043 9.689 9.689 0 01.00019 13.68669l-32.49607 32.49664a5.41338 5.41338 0 000 7.64652l32.31978 32.32016a9.418 9.418 0 01-6.66648 16.08412zM616.06941 281.46171a9.418 9.418 0 01-6.66648-16.08412l32.31978-32.32012a5.41338 5.41338 0 000-7.64652l-32.49607-32.49668a9.67776 9.67776 0 01.00019-13.68669 9.70169 9.70169 0 0113.64353-.043l43.73124 43.18435a9.15157 9.15157 0 010 13.02336l-43.90867 43.35929a9.39891 9.39891 0 01-6.62352 2.71013z"/></svg>
